<svg width="56" height="56" viewBox="0 0 56 56" fill="none" xmlns="http://www.w3.org/2000/svg">
<path d="M26.726 12.7764C27.4974 12.3348 28.5022 12.3328 29.2729 12.7764C33.1505 14.9674 37.0293 17.155 40.9062 19.3473C41.6354 19.7581 42.1231 20.5696 42.1157 21.4098V34.5919C42.1211 35.4669 41.5852 36.2978 40.8159 36.6992C36.951 38.8782 33.0882 41.0598 29.2241 43.2387C28.4367 43.6889 27.4118 43.6543 26.649 43.1672C25.4903 42.4955 24.3296 41.8271 23.1709 41.1561C22.9341 41.0149 22.6672 40.9026 22.5 40.673C22.6478 40.4738 22.912 40.4489 23.1268 40.362C23.6104 40.2082 24.0546 39.9613 24.499 39.7217C24.6113 39.6448 24.7485 39.6743 24.8562 39.7431C25.847 40.3112 26.829 40.8958 27.8232 41.4585C28.0352 41.5809 28.25 41.4184 28.4313 41.3173C32.2238 39.1738 36.0211 37.0384 39.813 34.8943C39.9535 34.8267 40.0311 34.6775 40.0197 34.5236C40.0224 30.1751 40.0204 25.8259 40.0211 21.4774C40.0371 21.3028 39.9361 21.1422 39.7782 21.0708C35.9268 18.9018 32.0773 16.7295 28.2266 14.56C28.1599 14.5141 28.0808 14.4895 27.9999 14.4894C27.9189 14.4893 27.8398 14.5136 27.773 14.5593C23.9222 16.7295 20.0735 18.9038 16.2227 21.0727C16.0654 21.1442 15.9598 21.3021 15.9785 21.4774C15.9792 25.8259 15.9785 30.1751 15.9785 34.5243C15.9718 34.5994 15.9883 34.6747 16.0258 34.7402C16.0632 34.8056 16.1198 34.858 16.1879 34.8903C17.2155 35.473 18.2444 36.0516 19.2727 36.6323C19.852 36.9441 20.5632 37.1294 21.2014 36.8905C21.7647 36.6885 22.1595 36.1138 22.1487 35.5158C22.154 31.1927 22.146 26.8689 22.1527 22.5465C22.1386 22.3545 22.3207 22.196 22.5073 22.214C23.001 22.2107 23.4954 22.2074 23.9891 22.2154C24.1952 22.2107 24.3371 22.4174 24.3116 22.6107C24.3096 26.9612 24.3169 31.3118 24.3083 35.6622C24.3096 36.8217 23.8332 38.0833 22.7608 38.6506C21.4396 39.335 19.8065 39.1899 18.5013 38.5336C17.3713 37.9696 16.293 37.304 15.1831 36.6998C14.4118 36.3006 13.8785 35.4663 13.8839 34.592V21.4098C13.8758 20.5522 14.3829 19.726 15.1349 19.3212C18.999 17.1405 22.8625 14.9581 26.726 12.7764Z" fill="#8CC84B"/>
<path d="M30.097 21.9077C31.7823 21.7992 33.5865 21.8434 35.1031 22.6736C36.2773 23.3099 36.9283 24.6452 36.949 25.9496C36.9162 26.1256 36.7323 26.2227 36.5643 26.2106C36.0753 26.2099 35.5862 26.2172 35.0972 26.2073C34.8898 26.2152 34.7693 26.024 34.7432 25.8406C34.6027 25.2165 34.2623 24.5983 33.6749 24.2972C32.773 23.8457 31.7274 23.8684 30.744 23.8778C30.0261 23.916 29.2541 23.9781 28.6459 24.4003C28.179 24.7201 28.0372 25.3656 28.2038 25.8855C28.361 26.2588 28.7919 26.3792 29.1444 26.4903C31.1755 27.0214 33.3277 26.9686 35.32 27.6677C36.1448 27.9526 36.9516 28.5067 37.234 29.3703C37.6033 30.5277 37.4414 31.9112 36.6179 32.8404C35.9501 33.605 34.9775 34.0212 34.0074 34.2473C32.7169 34.535 31.3776 34.5423 30.067 34.4146C28.8346 34.2741 27.5522 33.9503 26.6008 33.1106C25.7873 32.4043 25.39 31.3037 25.4294 30.2414C25.4388 30.062 25.6175 29.9369 25.7893 29.9516C26.2817 29.9477 26.7741 29.9463 27.2666 29.9523C27.4632 29.9382 27.609 30.1082 27.6191 30.2936C27.71 30.8883 27.9335 31.5124 28.452 31.865C29.4528 32.5106 30.7085 32.4664 31.8545 32.4845C32.8038 32.4424 33.8695 32.4296 34.6443 31.8022C35.053 31.4443 35.1741 30.8455 35.0637 30.3304C34.944 29.8955 34.489 29.6928 34.0983 29.5603C32.0934 28.926 29.9171 29.1562 27.9315 28.439C27.1254 28.1541 26.3459 27.6155 26.0362 26.7873C25.6041 25.6152 25.8021 24.1655 26.7119 23.2677C27.599 22.3746 28.8795 22.0306 30.097 21.9075V21.9077Z" fill="#8CC84B"/>
</svg>
