<svg width="56" height="56" viewBox="0 0 56 56" fill="none" xmlns="http://www.w3.org/2000/svg">
<path d="M34.0011 33.8596C35.1492 33.7407 36.0201 32.751 35.9805 31.5632C35.941 30.3755 34.9512 29.4253 33.7635 29.4253H33.6844C32.4569 29.4649 31.5068 30.4942 31.5465 31.7215C31.5861 32.3154 31.8235 32.8301 32.1799 33.1864C30.8338 35.8391 28.7751 37.7791 25.6871 39.4023C23.5888 40.5109 21.4114 40.9068 19.234 40.6298C17.4524 40.3922 16.0667 39.6004 15.1956 38.2938C13.9288 36.3538 13.8101 34.2554 14.879 32.1571C15.6313 30.6526 16.8189 29.544 17.5711 28.9897C17.4128 28.475 17.1752 27.6041 17.0564 26.9706C11.3158 31.1278 11.9097 36.7497 13.6517 39.4023C14.9581 41.382 17.6107 42.6093 20.5404 42.6093C21.3322 42.6093 22.1239 42.5301 22.9158 42.3322C27.9834 41.3424 31.8237 38.3334 34.0011 33.8596ZM40.969 28.9502C37.9601 25.4265 33.526 23.4866 28.4584 23.4866H27.825C27.4687 22.7739 26.7165 22.2988 25.8851 22.2988H25.8058C24.5787 22.3384 23.6285 23.3677 23.668 24.5951C23.7077 25.7828 24.6974 26.7331 25.8851 26.7331H25.9642C26.8352 26.6934 27.5874 26.1392 27.9041 25.3869H28.6168C31.6257 25.3869 34.4761 26.2579 37.0496 27.9604C39.0291 29.2669 40.4543 30.9694 41.2461 33.0281C41.9191 34.6909 41.8795 36.3142 41.1668 37.7C40.0584 39.7983 38.1977 40.9465 35.7431 40.9465C34.1594 40.9465 32.655 40.4713 31.8632 40.115C31.4277 40.5109 30.6358 41.1443 30.0816 41.5404C31.784 42.3321 33.526 42.7677 35.1888 42.7677C38.9894 42.7677 41.8004 40.6693 42.8693 38.571C44.0174 36.2746 43.9382 32.3154 40.969 28.9502ZM20.8571 34.5325C20.8967 35.7203 21.8864 36.6704 23.0741 36.6704H23.1534C24.3807 36.6309 25.3308 35.6014 25.2912 34.3741C25.2517 33.1863 24.2618 32.2362 23.0741 32.2362H22.995C22.9158 32.2362 22.7969 32.2362 22.7179 32.2757C21.0947 29.5835 20.4217 26.6538 20.6593 23.4864C20.8175 21.1109 21.6094 19.0521 22.995 17.3497C24.1431 15.8848 26.3601 15.1721 27.8646 15.1326C32.0611 15.0534 33.8426 20.2795 33.9615 22.3779C34.4761 22.4966 35.3471 22.7738 35.941 22.9718C35.4659 16.558 31.5068 13.2323 27.7063 13.2323C24.1431 13.2323 20.8571 15.8058 19.5506 19.6066C17.7295 24.6743 18.9172 29.544 21.1342 33.3844C20.9363 33.6615 20.8175 34.097 20.8571 34.5326V34.5325Z" fill="#764ABC"/>
</svg>
